<svg width="1200" height="800" xmlns="http://www.w3.org/2000/svg">
  <defs>
    <linearGradient id="bgGrad" x1="0%" y1="0%" x2="100%" y2="100%">
      <stop offset="0%" style="stop-color:#667eea;stop-opacity:0.1"/>
      <stop offset="100%" style="stop-color:#764ba2;stop-opacity:0.1"/>
    </linearGradient>
    <linearGradient id="stepGrad" x1="0%" y1="0%" x2="100%" y2="0%">
      <stop offset="0%" style="stop-color:#667eea"/>
      <stop offset="100%" style="stop-color:#764ba2"/>
    </linearGradient>
    <filter id="shadow" x="-20%" y="-20%" width="140%" height="140%">
      <dropShadow dx="2" dy="2" stdDeviation="3" flood-color="rgba(0,0,0,0.3)"/>
    </filter>
    <marker id="arrowhead" markerWidth="10" markerHeight="7" 
            refX="9" refY="3.5" orient="auto">
      <polygon points="0 0, 10 3.5, 0 7" fill="#667eea"/>
    </marker>
  </defs>
  
  <!-- Background -->
  <rect width="1200" height="800" fill="url(#bgGrad)"/>
  
  <!-- Title -->
  <text x="600" y="30" text-anchor="middle" font-family="Arial, sans-serif" 
        font-size="24" font-weight="bold" fill="#2c3e50">
    Cell Neighborhood Analysis Workflow
  </text>
  
  <!-- Step 1: Original Cell Data -->
  <g id="step1">
    <rect x="20" y="60" width="180" height="140" rx="10" fill="white" 
          stroke="#667eea" stroke-width="2" filter="url(#shadow)"/>
    <text x="110" y="80" text-anchor="middle" font-family="Arial" 
          font-size="12" font-weight="bold" fill="#2c3e50">
      1. Spatial Cell Data
    </text>
    
    <!-- Sample cells -->
<circle cx="50" cy="110" r="7" fill="#e74c3c"/>
<text x="50" y="110" text-anchor="middle" dominant-baseline="middle" font-family="Arial" font-size="7" fill="white">A</text>

<circle cx="80" cy="120" r="7" fill="#3498db"/>
<text x="80" y="120" text-anchor="middle" dominant-baseline="middle" font-family="Arial" font-size="7" fill="white">B</text>

<circle cx="120" cy="100" r="7" fill="#2ecc71"/>
<text x="120" y="100" text-anchor="middle" dominant-baseline="middle" font-family="Arial" font-size="7" fill="white">C</text>

<circle cx="90" cy="150" r="7" fill="#e74c3c"/>
<text x="90" y="150" text-anchor="middle" dominant-baseline="middle" font-family="Arial" font-size="7" fill="white">A</text>

<circle cx="140" cy="130" r="7" fill="#3498db"/>
<text x="140" y="130" text-anchor="middle" dominant-baseline="middle" font-family="Arial" font-size="7" fill="white">B</text>

<circle cx="160" cy="160" r="7" fill="#2ecc71"/>
<text x="160" y="160" text-anchor="middle" dominant-baseline="middle" font-family="Arial" font-size="7" fill="white">C</text>

<circle cx="70" cy="180" r="7" fill="#e74c3c"/>
<text x="70" y="180" text-anchor="middle" dominant-baseline="middle" font-family="Arial" font-size="7" fill="white">A</text>

    
    <text x="110" y="195" text-anchor="middle" font-family="Arial" 
          font-size="10" fill="#555">Different cell types in tissue</text>
  </g>
  
  <!-- Arrow 1 -->
  <line x1="200" y1="130" x2="240" y2="130" stroke="#667eea" 
        stroke-width="3" marker-end="url(#arrowhead)"/>
  
  <!-- Step 2: Delaunay Triangulation -->
  <g id="step2">
    <rect x="250" y="60" width="180" height="140" rx="10" fill="white" 
          stroke="#667eea" stroke-width="2" filter="url(#shadow)"/>
    <text x="340" y="80" text-anchor="middle" font-family="Arial" 
          font-size="12" font-weight="bold" fill="#2c3e50">
      2. Delaunay Triangulation
    </text>
    
    <!-- Triangulated network -->
    <circle cx="280" cy="110" r="3" fill="#e74c3c"/>
    <circle cx="310" cy="120" r="3" fill="#3498db"/>
    <circle cx="350" cy="100" r="3" fill="#2ecc71"/>
    <circle cx="320" cy="150" r="3" fill="#e74c3c"/>
    <circle cx="370" cy="130" r="3" fill="#3498db"/>
    <circle cx="390" cy="160" r="3" fill="#2ecc71"/>
    
    <!-- Triangulation lines -->
    <line x1="280" y1="110" x2="310" y2="120" stroke="#667eea" stroke-width="1" opacity="0.7"/>
    <line x1="310" y1="120" x2="350" y2="100" stroke="#667eea" stroke-width="1" opacity="0.7"/>
    <line x1="350" y1="100" x2="280" y2="110" stroke="#667eea" stroke-width="1" opacity="0.7"/>
    <line x1="310" y1="120" x2="320" y2="150" stroke="#667eea" stroke-width="1" opacity="0.7"/>
    <line x1="320" y1="150" x2="370" y2="130" stroke="#667eea" stroke-width="1" opacity="0.7"/>
    <line x1="370" y1="130" x2="310" y2="120" stroke="#667eea" stroke-width="1" opacity="0.7"/>
    <line x1="350" y1="100" x2="370" y2="130" stroke="#667eea" stroke-width="1" opacity="0.7"/>
    <line x1="370" y1="130" x2="390" y2="160" stroke="#667eea" stroke-width="1" opacity="0.7"/>
    
    <text x="340" y="195" text-anchor="middle" font-family="Arial" 
          font-size="10" fill="#555">Build spatial neighborhoods</text>
  </g>
  
  <!-- Arrow 2 -->
  <line x1="430" y1="130" x2="470" y2="130" stroke="#667eea" 
        stroke-width="3" marker-end="url(#arrowhead)"/>
  
  <!-- Step 3: Local Window Analysis -->
  <g id="step3">
    <rect x="480" y="60" width="180" height="140" rx="10" fill="white" 
          stroke="#667eea" stroke-width="2" filter="url(#shadow)"/>
    <text x="570" y="80" text-anchor="middle" font-family="Arial" 
          font-size="12" font-weight="bold" fill="#2c3e50">
      3. Local Window Analysis
    </text>
    
    <!-- Central cell with neighborhood -->
    <circle cx="570" cy="130" r="5" fill="#e74c3c" stroke="#ff4757" stroke-width="2"/>
    <circle cx="570" cy="130" r="25" fill="none" stroke="#ff4757" 
            stroke-width="2" stroke-dasharray="3,3" opacity="0.7"/>
    
    <!-- Neighboring cells -->
    <circle cx="550" cy="115" r="3" fill="#3498db"/>
    <circle cx="590" cy="110" r="3" fill="#2ecc71"/>
    <circle cx="585" cy="145" r="3" fill="#e74c3c"/>
    <circle cx="555" cy="150" r="3" fill="#3498db"/>
    
    <!-- Frequency vector -->
    <rect x="510" y="160" width="120" height="25" rx="3" fill="#f8f9fa" stroke="#ddd"/>
    <text x="570" y="175" text-anchor="middle" font-family="Arial" 
          font-size="9" fill="#2c3e50">A:40% B:40% C:20%</text>
    
    <text x="570" y="195" text-anchor="middle" font-family="Arial" 
          font-size="10" fill="#555">Calculate cell type frequencies</text>
  </g>
  
  <!-- Arrow 3 -->
  <line x1="660" y1="130" x2="700" y2="130" stroke="#667eea" 
        stroke-width="3" marker-end="url(#arrowhead)"/>
  
  <!-- Step 4: Pool Data from Multiple Patients -->
  <g id="step4">
    <rect x="720" y="60" width="200" height="160" rx="10" fill="white" 
          stroke="#667eea" stroke-width="2" filter="url(#shadow)"/>
    <text x="820" y="80" text-anchor="middle" font-family="Arial" 
          font-size="12" font-weight="bold" fill="#2c3e50">
      4. Pool Data from All Patients
    </text>
    
    <!-- Patient 1 -->
    <rect x="730" y="90" width="40" height="30" rx="3" fill="#e8f4fd" stroke="#3498db"/>
    <text x="750" y="108" text-anchor="middle" font-family="Arial" font-size="8" fill="#2c3e50">P1</text>
    
    <!-- Patient 2 -->
    <rect x="780" y="90" width="40" height="30" rx="3" fill="#fce8e6" stroke="#e74c3c"/>
    <text x="800" y="108" text-anchor="middle" font-family="Arial" font-size="8" fill="#2c3e50">P2</text>
    
    <!-- Patient 3 -->
    <rect x="830" y="90" width="40" height="30" rx="3" fill="#e8f8f5" stroke="#2ecc71"/>
    <text x="850" y="108" text-anchor="middle" font-family="Arial" font-size="8" fill="#2c3e50">P3</text>
    
    <!-- Patient 4 -->
    <rect x="880" y="90" width="40" height="30" rx="3" fill="#fff3cd" stroke="#f39c12"/>
    <text x="900" y="108" text-anchor="middle" font-family="Arial" font-size="8" fill="#2c3e50">P4</text>
    
    <!-- Arrows pointing down -->
    <line x1="750" y1="125" x2="750" y2="145" stroke="#27ae60" stroke-width="2" marker-end="url(#arrowhead)"/>
    <line x1="800" y1="125" x2="800" y2="145" stroke="#27ae60" stroke-width="2" marker-end="url(#arrowhead)"/>
    <line x1="850" y1="125" x2="850" y2="145" stroke="#27ae60" stroke-width="2" marker-end="url(#arrowhead)"/>
    <line x1="900" y1="125" x2="900" y2="145" stroke="#27ae60" stroke-width="2" marker-end="url(#arrowhead)"/>
    
    <!-- Pooled data -->
    <rect x="760" y="150" width="120" height="50" rx="5" fill="#e8f8f5" stroke="#27ae60" stroke-width="2"/>
    <text x="820" y="165" text-anchor="middle" font-family="Arial" font-size="10" fill="#2c3e50">Pooled Dataset</text>
    <text x="820" y="180" text-anchor="middle" font-family="Arial" font-size="9" fill="#555">All frequency vectors</text>
    <text x="820" y="192" text-anchor="middle" font-family="Arial" font-size="9" fill="#555">from all patients</text>
    
    <text x="820" y="215" text-anchor="middle" font-family="Arial" 
          font-size="10" fill="#555">Combine all patient data</text>
  </g>
  
  <!-- Arrow 4 (smaller and more subtle) -->
  <path d="M 820 220 Q 780 230 600 250" stroke="#667eea" stroke-width="2" 
        fill="none" marker-end="url(#arrowhead)" opacity="0.8"/>
  
  <!-- Step 5: Choose Optimal K (repositioned higher) -->
  <g id="step5">
    <rect x="480" y="280" width="240" height="140" rx="10" fill="white" 
          stroke="#667eea" stroke-width="2" filter="url(#shadow)"/>
    <text x="600" y="300" text-anchor="middle" font-family="Arial" 
          font-size="12" font-weight="bold" fill="#2c3e50">
      5. Choose Optimal K-means Value
    </text>
    
    <!-- Elbow curve (moved up more) -->
    <g transform="translate(500, 300)">
      <!-- Axes -->
      <line x1="20" y1="80" x2="200" y2="80" stroke="#34495e" stroke-width="2"/>
      <line x1="20" y1="80" x2="20" y2="20" stroke="#34495e" stroke-width="2"/>
      
      <!-- Data points and curve -->
      <circle cx="40" cy="30" r="3" fill="#667eea"/>
      <text x="35" y="92" font-family="Arial" font-size="8" fill="#2c3e50">1</text>
      
      <circle cx="70" cy="40" r="3" fill="#667eea"/>
      <text x="65" y="92" font-family="Arial" font-size="8" fill="#2c3e50">2</text>
      
      <circle cx="100" cy="60" r="5" fill="#e74c3c"/>
      <text x="95" y="92" font-family="Arial" font-size="8" fill="#e74c3c">3</text>
      
      <circle cx="130" cy="65" r="3" fill="#667eea"/>
      <text x="125" y="92" font-family="Arial" font-size="8" fill="#2c3e50">4</text>
      
      <circle cx="160" cy="70" r="3" fill="#667eea"/>
      <text x="155" y="92" font-family="Arial" font-size="8" fill="#2c3e50">5</text>
      
      <!-- Curve line -->
      <path d="M 40 30 Q 70 35 100 60 Q 130 62 160 70" stroke="#667eea" 
            stroke-width="2" fill="none"/>
      
      <!-- Labels (moved up) -->
      <text x="110" y="105" text-anchor="middle" font-family="Arial" font-size="9" fill="#2c3e50">Number of Clusters (K)</text>
      <text x="-5" y="50" text-anchor="middle" font-family="Arial" font-size="8" fill="#2c3e50" transform="rotate(-90, -5, 50)">WCSS</text>
      
      <!-- Optimal K indicator -->
      <text x="100" y="45" text-anchor="middle" font-family="Arial" font-size="10" 
            fill="#e74c3c" font-weight="bold">Optimal K=3</text>
    </g>
    
    <text x="600" y="415" text-anchor="middle" font-family="Arial" 
          font-size="10" fill="#555">Use elbow method to find optimal clusters</text>
  </g>
  
  <!-- Arrow 5 -->
  <line x1="480" y1="350" x2="440" y2="350" stroke="#667eea" 
        stroke-width="3" marker-end="url(#arrowhead)"/>
  
  <!-- Step 6: Final Clustering (moved up slightly) -->
  <g id="step6">
    <rect x="20" y="280" width="400" height="140" rx="10" fill="white" 
          stroke="#667eea" stroke-width="2" filter="url(#shadow)"/>
    <text x="220" y="300" text-anchor="middle" font-family="Arial" 
          font-size="12" font-weight="bold" fill="#2c3e50">
      6. Cluster All Vectors to Obtain Cell Neighborhood Labels
    </text>
    
    <!-- Cluster 1: Immune-rich -->
    <g transform="translate(40, 320)">
      <rect x="0" y="0" width="110" height="70" rx="5" fill="#ffe6e6" stroke="#ff6b6b" stroke-width="2"/>
      <text x="55" y="15" text-anchor="middle" font-family="Arial" font-size="10" 
            font-weight="bold" fill="#d63031">Immune-rich</text>
      <circle cx="20" cy="30" r="3" fill="#ff6b6b"/>
      <circle cx="40" cy="35" r="3" fill="#ff6b6b"/>
      <circle cx="60" cy="25" r="3" fill="#ff6b6b"/>
      <circle cx="80" cy="40" r="3" fill="#ff6b6b"/>
      <circle cx="30" cy="50" r="3" fill="#ff6b6b"/>
      <circle cx="70" cy="55" r="3" fill="#ff6b6b"/>
      <text x="55" y="68" text-anchor="middle" font-family="Arial" font-size="8" fill="#555">High immune infiltration</text>
    </g>
    
    <!-- Cluster 2: Mixed -->
    <g transform="translate(165, 320)">
      <rect x="0" y="0" width="110" height="70" rx="5" fill="#e6fffe" stroke="#4ecdc4" stroke-width="2"/>
      <text x="55" y="15" text-anchor="middle" font-family="Arial" font-size="10" 
            font-weight="bold" fill="#00695c">Mixed</text>
      <circle cx="20" cy="30" r="3" fill="#4ecdc4"/>
      <circle cx="40" cy="35" r="3" fill="#4ecdc4"/>
      <circle cx="60" cy="25" r="3" fill="#4ecdc4"/>
      <circle cx="80" cy="40" r="3" fill="#4ecdc4"/>
      <circle cx="30" cy="50" r="3" fill="#4ecdc4"/>
      <circle cx="70" cy="55" r="3" fill="#4ecdc4"/>
      <text x="55" y="68" text-anchor="middle" font-family="Arial" font-size="8" fill="#555">Balanced cell types</text>
    </g>
    
    <!-- Cluster 3: Tumor-dominant -->
    <g transform="translate(290, 320)">
      <rect x="0" y="0" width="110" height="70" rx="5" fill="#fff9e6" stroke="#ffe66d" stroke-width="2"/>
      <text x="55" y="15" text-anchor="middle" font-family="Arial" font-size="10" 
            font-weight="bold" fill="#d4851a">Tumor-dominant</text>
      <circle cx="20" cy="30" r="3" fill="#ffe66d"/>
      <circle cx="40" cy="35" r="3" fill="#ffe66d"/>
      <circle cx="60" cy="25" r="3" fill="#ffe66d"/>
      <circle cx="80" cy="40" r="3" fill="#ffe66d"/>
      <circle cx="30" cy="50" r="3" fill="#ffe66d"/>
      <circle cx="70" cy="55" r="3" fill="#ffe66d"/>
      <text x="55" y="68" text-anchor="middle" font-family="Arial" font-size="8" fill="#555">Tumor cell enriched</text>
    </g>
    
    <text x="220" y="415" text-anchor="middle" font-family="Arial" 
          font-size="10" fill="#555">Identify distinct cellular microenvironments</text>
  </g>
  
  <!-- Result arrow and text -->
  <g transform="translate(20, 450)">
    <rect x="0" y="0" width="1160" height="80" rx="10" fill="#f8f9fa" 
          stroke="#667eea" stroke-width="2" stroke-dasharray="5,5"/>
    <text x="580" y="25" text-anchor="middle" font-family="Arial" 
          font-size="16" font-weight="bold" fill="#2c3e50">
      Result: Cell Neighborhood Classification
    </text>
    <text x="580" y="45" text-anchor="middle" font-family="Arial" 
          font-size="12" fill="#555">
      Each cell is assigned a neighborhood label based on its local cellular context
    </text>
    <text x="580" y="65" text-anchor="middle" font-family="Arial" 
          font-size="12" fill="#555">
      Enables identification of tumor microenvironment heterogeneity and spatial patterns
    </text>
  </g>
  
  <!-- Legend -->
  <g transform="translate(950, 60)">
    <rect x="0" y="0" width="200" height="120" rx="8" fill="white" 
          stroke="#ddd" stroke-width="1" filter="url(#shadow)"/>
    <text x="100" y="20" text-anchor="middle" font-family="Arial" 
          font-size="12" font-weight="bold" fill="#2c3e50">Cell Types</text>
    
    <circle cx="20" cy="35" r="4" fill="#e74c3c"/>
    <text x="35" y="40" font-family="Arial" font-size="10" fill="#2c3e50">Type A (e.g., Tumor)</text>
    
    <circle cx="20" cy="55" r="4" fill="#3498db"/>
    <text x="35" y="60" font-family="Arial" font-size="10" fill="#2c3e50">Type B (e.g., Immune)</text>
    
    <circle cx="20" cy="75" r="4" fill="#2ecc71"/>
    <text x="35" y="80" font-family="Arial" font-size="10" fill="#2c3e50">Type C (e.g., Stroma)</text>
    
    <text x="100" y="100" text-anchor="middle" font-family="Arial" 
          font-size="10" fill="#555">Example cell phenotypes</text>
  </g>
  
  <!-- Workflow direction indicators -->
  <g>
    <text x="600" y="720" text-anchor="middle" font-family="Arial" 
          font-size="14" font-weight="bold" fill="#667eea">
      ← Data Processing Flow →
    </text>
    <text x="600" y="740" text-anchor="middle" font-family="Arial" 
          font-size="12" fill="#555">
      From individual cells to neighborhood classification
    </text>
  </g>
</svg>